<svg width="24" height="24" viewBox="0 0 24 24" fill="none" xmlns="http://www.w3.org/2000/svg">
<path fill-rule="evenodd" clip-rule="evenodd" d="M11.9998 0C5.74251 0.00594141 0.540053 4.81903 0.0483382 11.057C-0.443377 17.295 3.94072 22.8637 10.1198 23.85V15.47H7.11984V12H10.1198V9.36C10.1198 6.36 11.9198 4.69 14.6598 4.69C15.5575 4.70227 16.4532 4.77913 17.3398 4.92V7.92H15.8298C15.3089 7.85106 14.7848 8.02267 14.4055 8.38641C14.0262 8.75015 13.8328 9.26658 13.8798 9.79V12H17.1998L16.6698 15.47H13.8798V23.85C20.059 22.8637 24.443 17.295 23.9513 11.057C23.4596 4.81903 18.2572 0.00594141 11.9998 0Z" fill="white"/>
</svg>
