<svg width="24" height="24" viewBox="0 0 24 24" fill="none" xmlns="http://www.w3.org/2000/svg">
<path fill-rule="evenodd" clip-rule="evenodd" d="M10.1363 0.000976562H13.8645L15.3071 0.00997726C15.6219 0.0145266 15.8859 0.0211687 16.1507 0.0308662L17.0001 0.0700873C17.978 0.0957529 18.9447 0.285038 19.8601 0.630087C21.4769 1.24635 22.7538 2.5233 23.3701 4.14009C23.7207 5.07125 23.91 6.05532 23.9301 7.05009L23.9672 7.81535C23.9916 8.43764 23.9979 9.04546 23.9995 10.3563L23.9973 14.4913C23.9931 15.3993 23.9825 15.8883 23.9557 16.4812L23.9301 17.0001C23.9044 17.978 23.7151 18.9447 23.3701 19.8601C22.7538 21.4769 21.4769 22.7538 19.8601 23.3701C18.9289 23.7207 17.9449 23.91 16.9501 23.9301L16.1848 23.9672C15.5625 23.9916 14.9547 23.9979 13.6438 23.9995L8.32587 23.9952C7.89141 23.9923 7.53255 23.9876 7.05009 23.9801C6.05532 23.96 5.07125 23.7707 4.14009 23.4201C2.5233 22.8038 1.24635 21.5269 0.630087 19.9101C0.323337 19.0953 0.140002 18.24 0.0855281 17.3725L0.0308662 16.1507C0.00953178 15.568 0.00298534 14.9899 0.000976562 13.8645L0.00384058 9.32849C0.0100407 8.30717 0.0264831 7.84742 0.0700873 7.05009C0.0901397 6.05532 0.279515 5.07125 0.630087 4.14009C1.24635 2.5233 2.5233 1.24635 4.14009 0.630087C4.95485 0.323337 5.81013 0.140002 6.67763 0.0855281L7.87143 0.0308662C8.43892 0.00953178 9.01231 0.00298534 10.1363 0.000976562ZM14.4427 2.16289L9.32398 2.16701C8.93063 2.1705 8.62403 2.1756 8.34534 2.18295L7.15009 2.23009C6.38822 2.24169 5.63397 2.38374 4.92009 2.65009C4.39783 2.8368 3.92561 3.14135 3.54009 3.54009C3.14135 3.92561 2.8368 4.39783 2.65009 4.92009C2.42179 5.53199 2.28481 6.17355 2.24303 6.82413L2.18338 8.17552C2.17011 8.59915 2.1644 9.06159 2.16194 9.79103L2.16701 14.6762C2.1705 15.0695 2.1756 15.3761 2.18295 15.6548L2.23009 16.8501C2.24169 17.612 2.38374 18.3662 2.65009 19.0801C2.8368 19.6024 3.14135 20.0746 3.54009 20.4601C3.92561 20.8588 4.39783 21.1634 4.92009 21.3501C5.63397 21.6164 6.38822 21.7585 7.15009 21.7701L8.0965 21.8142C8.64686 21.8329 9.23942 21.8381 10.3888 21.8395L14.3817 21.8354C15.5482 21.828 15.9996 21.8103 16.8501 21.7701C17.612 21.7585 18.3662 21.6164 19.0801 21.3501C20.1283 20.9555 20.9555 20.1283 21.3501 19.0801C21.5784 18.4682 21.7154 17.8266 21.7571 17.176L21.8132 15.7984C21.8311 15.2042 21.8376 14.525 21.8395 13.1385L21.8354 9.61847C21.828 8.45196 21.8103 8.0006 21.7701 7.15009C21.7585 6.38822 21.6164 5.63397 21.3501 4.92009C21.1634 4.39783 20.8588 3.92561 20.4601 3.54009C20.0746 3.14135 19.6023 2.8368 19.0801 2.65009C18.4682 2.42179 17.8266 2.28481 17.176 2.24303L15.8247 2.18338C15.4481 2.17159 15.0409 2.16576 14.4427 2.16289ZM12.0001 5.84009C13.6338 5.84009 15.2006 6.48909 16.3559 7.64431C17.5111 8.79953 18.1601 10.3664 18.1601 12.0001C18.1601 15.4022 15.4022 18.1601 12.0001 18.1601C8.59801 18.1601 5.84009 15.4022 5.84009 12.0001C5.84009 8.59801 8.59801 5.84009 12.0001 5.84009ZM12.0001 8.00009C9.79095 8.00009 8.00009 9.79095 8.00009 12.0001C8.00009 14.2092 9.79095 16.0001 12.0001 16.0001C13.061 16.0001 14.0784 15.5787 14.8285 14.8285C15.5787 14.0784 16.0001 13.061 16.0001 12.0001C16.0001 9.79095 14.2092 8.00009 12.0001 8.00009ZM18.4101 4.15009C19.2054 4.15009 19.8501 4.7948 19.8501 5.59009C19.8501 6.38538 19.2054 7.03009 18.4101 7.03009C17.6148 7.03009 16.9701 6.38538 16.9701 5.59009C16.9701 4.7948 17.6148 4.15009 18.4101 4.15009Z" fill="white"/>
</svg>
