<svg width="24" height="24" viewBox="0 0 24 24" fill="none" xmlns="http://www.w3.org/2000/svg">
<path fill-rule="evenodd" clip-rule="evenodd" d="M22.29 0H1.71C0.762367 0.010956 -6.33278e-05 0.782304 3.94523e-09 1.73V22.27C-6.33278e-05 23.2177 0.762367 23.989 1.71 24H22.29C23.2376 23.989 24.0001 23.2177 24 22.27V1.73C24.0001 0.782304 23.2376 0.010956 22.29 0ZM7.29 20.57H3.7V9.12H7.26L7.29 20.57ZM5.51 7.57C4.67601 7.58211 3.91703 7.09012 3.58759 6.32386C3.25816 5.55761 3.42329 4.66831 4.00585 4.0714C4.58841 3.47449 5.47342 3.28778 6.24746 3.59848C7.02151 3.90918 7.53181 4.65597 7.54 5.49C7.54 6.03635 7.32297 6.56031 6.93664 6.94664C6.55031 7.33296 6.02635 7.55 5.48 7.55L5.51 7.57ZM20.62 20.57H17V15C17 13.67 17 12 15.15 12C13.3 12 13 13.41 13 14.9V20.57H9.49V9.12H12.9V10.68C13.5962 9.489 14.8914 8.77794 16.27 8.83C19.87 8.83 20.54 11.21 20.54 14.29L20.62 20.57Z" fill="white"/>
</svg>
