<svg width="34" height="34" viewBox="0 0 34 34" fill="none" xmlns="http://www.w3.org/2000/svg">
<path d="M14.4567 3.44817C-1.53464 9.54578 -1.92946 16.0686 6.2636 25.8061C14.4567 35.5435 23.2914 33.5108 30.2506 18.9522C37.2098 4.39354 30.448 -2.64944 14.4567 3.44817Z" stroke="#4594FF" stroke-width="1.7" stroke-linecap="round" stroke-linejoin="round"/>
<path d="M16.431 8.60633C16.6106 8.05354 17.3927 8.05354 17.5723 8.60633L19.2617 13.806C19.3421 14.0532 19.5724 14.2206 19.8324 14.2206H25.2996C25.8809 14.2206 26.1225 14.9644 25.6523 15.306L21.2292 18.5196C21.0189 18.6723 20.9309 18.9432 21.0112 19.1904L22.7007 24.39C22.8803 24.9428 22.2476 25.4025 21.7774 25.0609L17.3543 21.8473C17.144 21.6945 16.8592 21.6945 16.649 21.8473L12.2259 25.0609C11.7556 25.4025 11.1229 24.9428 11.3026 24.39L12.992 19.1904C13.0724 18.9432 12.9844 18.6723 12.7741 18.5196L8.35096 15.306C7.88074 14.9644 8.1224 14.2206 8.70364 14.2206H14.1709C14.4308 14.2206 14.6612 14.0532 14.7415 13.806L16.431 8.60633Z" stroke="#4594FF" stroke-width="1.7" stroke-linecap="round" stroke-linejoin="round"/>
</svg>
