<svg width="24" height="24" viewBox="0 0 24 24" fill="none" xmlns="http://www.w3.org/2000/svg">
<path fill-rule="evenodd" clip-rule="evenodd" d="M23.34 2.60985C22.371 3.17962 21.3128 3.58193 20.21 3.79985C18.8258 2.32919 16.6847 1.85148 14.8067 2.59431C12.9287 3.33714 11.6936 5.15026 11.69 7.16985C11.692 7.54683 11.7356 7.92244 11.82 8.28985C7.86163 8.09048 4.17324 6.22267 1.67 3.14985C0.360147 5.39731 1.02616 8.27604 3.19 9.71985C2.42204 9.69251 1.67151 9.48346 1 9.10985V9.16985C1.0055 11.5297 2.68252 13.5547 5 13.9998C4.57924 14.1125 4.14557 14.1696 3.71 14.1698C3.39779 14.1706 3.08627 14.1405 2.78 14.0798C3.42235 16.0876 5.27235 17.463 7.38 17.4998C5.63409 18.8691 3.47881 19.6122 1.26 19.6098C0.838892 19.6154 0.417897 19.5921 0 19.5398C2.25183 20.9871 4.87319 21.7544 7.55 21.7498C11.2696 21.7713 14.843 20.3032 17.4732 17.673C20.1033 15.0428 21.5714 11.4694 21.55 7.74985C21.55 7.53985 21.55 7.32985 21.55 7.11985C22.5087 6.41476 23.3377 5.54856 24 4.55985C23.1003 4.95602 22.1464 5.21555 21.17 5.32985C22.1993 4.71636 22.9705 3.74968 23.34 2.60985Z" fill="white"/>
</svg>
