<svg width="42" height="42" viewBox="0 0 42 42" fill="none" xmlns="http://www.w3.org/2000/svg">
<path fill-rule="evenodd" clip-rule="evenodd" d="M42 21C42 32.5983 32.5983 42 21 42C9.4017 42 0 32.5983 0 21C0 9.4017 9.4017 0 21 0C32.5983 0 42 9.4017 42 21" fill="#181818"/>
<path fill-rule="evenodd" clip-rule="evenodd" d="M18.2866 12.9112C19.484 10.9154 22.3331 10.8643 23.6167 12.7578L23.7147 12.9114L24.7507 14.6386C25.1236 15.2602 24.9219 16.0664 24.3003 16.4393C23.7152 16.7902 22.9667 16.6322 22.5698 16.0941L22.4996 15.9888L21.4641 14.2623C21.2701 13.9394 20.8233 13.9146 20.5908 14.1874L20.5375 14.2618L13.3102 26.3066C13.1087 26.6427 13.3211 27.0639 13.6918 27.1185L13.7735 27.1245H28.2277C28.6191 27.1245 28.871 26.7257 28.7273 26.3801L28.6903 26.307L25.7245 21.3639L23.7006 24.7382C23.3495 25.3232 22.6147 25.5361 22.0113 25.2481L21.8998 25.1883C21.3148 24.8372 21.1019 24.1024 21.3899 23.499L21.4497 23.3875L24.5997 18.1384C25.0874 17.3257 26.2352 17.2904 26.7802 18.0325L26.8506 18.1385L30.9411 24.9562C32.1798 27.0197 30.7522 29.633 28.3867 29.7457L28.2277 29.7495H13.7735C11.3669 29.7495 9.86052 27.1818 10.9805 25.0948L11.0591 24.9564L18.2866 12.9112Z" fill="white"/>
</svg>
