<svg width="172" height="34" viewBox="0 0 172 34" fill="none" xmlns="http://www.w3.org/2000/svg">
<path fill-rule="evenodd" clip-rule="evenodd" d="M47.267 8.65234C50.64 8.65234 52.7397 10.4238 53.9459 12.4051L51.0867 14.0134C50.3496 12.8246 48.987 11.8223 47.267 11.8223C44.3408 11.8223 42.1963 14.1765 42.1963 17.3466C42.1963 20.5166 44.3184 22.8708 47.267 22.8708C48.6966 22.8708 50.0592 22.2181 50.707 21.5888V19.5609H46.4405V16.4608H54.147V22.9174C52.494 24.8287 50.1932 26.1107 47.267 26.1107C42.5537 26.1107 38.667 22.6843 38.667 17.3699C38.667 12.0321 42.5314 8.65234 47.267 8.65234ZM64.534 8.65234C69.426 8.65234 72.9776 12.2885 72.9776 17.3699C72.9776 22.4512 69.426 26.0874 64.534 26.0874C59.6644 26.0874 56.1127 22.4512 56.1127 17.3699C56.1127 12.2885 59.6644 8.65234 64.534 8.65234ZM83.0519 8.65234C87.9439 8.65234 91.4956 12.2885 91.4956 17.3699C91.4956 22.4512 87.9439 26.0874 83.0519 26.0874C78.1823 26.0874 74.6306 22.4512 74.6306 17.3699C74.6306 12.2885 78.1823 8.65234 83.0519 8.65234ZM100.297 8.93205C105.367 8.93205 108.874 12.2885 108.874 17.3699C108.874 22.4512 105.367 25.7844 100.297 25.7844H93.9304V8.93205H100.297ZM113.074 8.93205L115.933 21.1226L119.016 8.95536H121.696L124.734 21.1226L127.549 8.95536H131.413L126.834 25.7844H123.17L120.333 14.2232L117.519 25.7844H113.856L109.232 8.93205H113.074ZM140.817 8.93205L147.049 25.7844H143.118L142.135 22.9407H135.21L134.183 25.7844H130.251L136.506 8.93205H140.817ZM151.986 8.93205V22.6144H158.821V25.7844H148.546V8.93205H151.986ZM164.651 8.93205V22.6144H171.464V25.7844H161.211V8.93205H164.651ZM64.534 11.8457C61.5631 11.8457 59.6421 14.2232 59.6421 17.3699C59.6421 20.4932 61.5631 22.8941 64.534 22.8941C67.5049 22.9174 69.4483 20.5166 69.4483 17.3699C69.4483 14.2232 67.5049 11.8457 64.534 11.8457ZM83.0519 11.8457C80.081 11.8457 78.16 14.2232 78.16 17.3699C78.16 20.4932 80.081 22.8941 83.0519 22.8941C86.0228 22.9174 87.9662 20.5166 87.9662 17.3699C87.9662 14.2232 86.0228 11.8457 83.0519 11.8457ZM100.274 12.0787H97.348V22.6144H100.274C103.491 22.6377 105.345 20.2368 105.345 17.3699C105.345 14.3863 103.603 12.0787 100.274 12.0787ZM138.673 12.5216L136.149 19.7707H141.175L138.673 12.5216Z" fill="#181818"/>
<path fill-rule="evenodd" clip-rule="evenodd" d="M32 17.0003C32 26.2213 24.8368 33.696 16 33.696C7.1632 33.696 0 26.2213 0 17.0003C0 7.77933 7.1632 0.304688 16 0.304688C24.8368 0.304688 32 7.77933 32 17.0003Z" fill="#181818"/>
<path fill-rule="evenodd" clip-rule="evenodd" d="M13.9329 10.57C14.8452 8.98326 17.0159 8.94257 17.9939 10.448L18.0686 10.5701L18.8579 11.9433C19.142 12.4375 18.9883 13.0785 18.5147 13.3749C18.069 13.6539 17.4986 13.5283 17.1962 13.1005L17.1428 13.0168L16.3538 11.6442C16.206 11.3874 15.8656 11.3677 15.6885 11.5846L15.6478 11.6437L10.1413 21.2198C9.98783 21.4869 10.1497 21.8218 10.4321 21.8652L10.4944 21.8699H21.507C21.8053 21.8699 21.9972 21.5529 21.8877 21.2781L21.8595 21.22L19.5998 17.2901L18.0578 19.9728C17.7903 20.4379 17.2305 20.6071 16.7707 20.3782L16.6858 20.3306C16.2401 20.0515 16.0779 19.4673 16.2973 18.9876L16.3429 18.8989L18.7429 14.7257C19.1144 14.0796 19.9889 14.0516 20.4042 14.6415L20.4579 14.7258L23.5744 20.1461C24.5182 21.7867 23.4305 23.8643 21.6282 23.9539L21.507 23.9569H10.4944C8.66073 23.9569 7.51301 21.9155 8.36634 20.2563L8.4262 20.1463L13.9329 10.57Z" fill="white"/>
</svg>
