<svg width="24" height="24" viewBox="0 0 24 24" fill="none" xmlns="http://www.w3.org/2000/svg">
<path d="M23.4735 6.70052C23.2102 5.63802 22.3766 4.79688 21.3675 4.53125C19.4808 4 12.0219 4 12.0219 4C12.0219 4 4.5192 4 2.63254 4.53125C1.6234 4.79688 0.789762 5.63802 0.526508 6.70052C0 8.5599 0 12.5443 0 12.5443C0 12.5443 0 16.4844 0.526508 18.388C0.789762 19.4505 1.6234 20.2474 2.63254 20.513C4.5192 21 12.0219 21 12.0219 21C12.0219 21 19.4808 21 21.3675 20.513C22.3766 20.2474 23.2102 19.4505 23.4735 18.388C24 16.4844 24 12.5443 24 12.5443C24 12.5443 24 8.5599 23.4735 6.70052ZM9.5649 16.1302V8.95833L15.7952 12.5443L9.5649 16.1302Z" fill="white"/>
</svg>
